<?xml version="1.0" encoding="utf-8" standalone="no"?>
<!DOCTYPE svg PUBLIC "-//W3C//DTD SVG 1.1//EN"
  "http://www.w3.org/Graphics/SVG/1.1/DTD/svg11.dtd">
<svg height="262.19625pt" version="1.1" viewBox="0 0 397.345312 262.19625" width="397.345312pt" xmlns="http://www.w3.org/2000/svg" xmlns:xlink="http://www.w3.org/1999/xlink">
 <metadata>
  <rdf:RDF xmlns:cc="http://creativecommons.org/ns#" xmlns:dc="http://purl.org/dc/elements/1.1/" xmlns:rdf="http://www.w3.org/1999/02/22-rdf-syntax-ns#">
   <cc:Work>
    <dc:type rdf:resource="http://purl.org/dc/dcmitype/StillImage"/>
    <dc:date>2021-04-23T14:21:31.850232</dc:date>
    <dc:format>image/svg+xml</dc:format>
    <dc:creator>
     <cc:Agent>
      <dc:title>Matplotlib v3.4.1, https://matplotlib.org/</dc:title>
     </cc:Agent>
    </dc:creator>
   </cc:Work>
  </rdf:RDF>
 </metadata>
 <defs>
  <style type="text/css">*{stroke-linecap:butt;stroke-linejoin:round;}</style>
 </defs>
 <g id="figure_1">
  <g id="patch_1">
   <path d="M 0 262.19625 
L 397.345312 262.19625 
L 397.345312 0 
L 0 0 
z
" style="fill:none;"/>
  </g>
  <g id="axes_1">
   <g id="patch_2">
    <path d="M 55.345313 224.64 
L 390.145312 224.64 
L 390.145312 7.2 
L 55.345313 7.2 
z
" style="fill:#ffffff;"/>
   </g>
   <g id="matplotlib.axis_1">
    <g id="xtick_1">
     <g id="line2d_1">
      <defs>
       <path d="M 0 0 
L 0 3.5 
" id="m327991a257" style="stroke:#000000;stroke-width:0.8;"/>
      </defs>
      <g>
       <use style="stroke:#000000;stroke-width:0.8;" x="70.563494" xlink:href="#m327991a257" y="224.64"/>
      </g>
     </g>
     <g id="text_1">
      <!-- 0 -->
      <g transform="translate(67.382244 239.238437)scale(0.1 -0.1)">
       <defs>
        <path d="M 2034 4250 
Q 1547 4250 1301 3770 
Q 1056 3291 1056 2328 
Q 1056 1369 1301 889 
Q 1547 409 2034 409 
Q 2525 409 2770 889 
Q 3016 1369 3016 2328 
Q 3016 3291 2770 3770 
Q 2525 4250 2034 4250 
z
M 2034 4750 
Q 2819 4750 3233 4129 
Q 3647 3509 3647 2328 
Q 3647 1150 3233 529 
Q 2819 -91 2034 -91 
Q 1250 -91 836 529 
Q 422 1150 422 2328 
Q 422 3509 836 4129 
Q 1250 4750 2034 4750 
z
" id="DejaVuSans-30" transform="scale(0.015625)"/>
       </defs>
       <use xlink:href="#DejaVuSans-30"/>
      </g>
     </g>
    </g>
    <g id="xtick_2">
     <g id="line2d_2">
      <g>
       <use style="stroke:#000000;stroke-width:0.8;" x="131.436222" xlink:href="#m327991a257" y="224.64"/>
      </g>
     </g>
     <g id="text_2">
      <!-- 2 -->
      <g transform="translate(128.254972 239.238437)scale(0.1 -0.1)">
       <defs>
        <path d="M 1228 531 
L 3431 531 
L 3431 0 
L 469 0 
L 469 531 
Q 828 903 1448 1529 
Q 2069 2156 2228 2338 
Q 2531 2678 2651 2914 
Q 2772 3150 2772 3378 
Q 2772 3750 2511 3984 
Q 2250 4219 1831 4219 
Q 1534 4219 1204 4116 
Q 875 4013 500 3803 
L 500 4441 
Q 881 4594 1212 4672 
Q 1544 4750 1819 4750 
Q 2544 4750 2975 4387 
Q 3406 4025 3406 3419 
Q 3406 3131 3298 2873 
Q 3191 2616 2906 2266 
Q 2828 2175 2409 1742 
Q 1991 1309 1228 531 
z
" id="DejaVuSans-32" transform="scale(0.015625)"/>
       </defs>
       <use xlink:href="#DejaVuSans-32"/>
      </g>
     </g>
    </g>
    <g id="xtick_3">
     <g id="line2d_3">
      <g>
       <use style="stroke:#000000;stroke-width:0.8;" x="192.308949" xlink:href="#m327991a257" y="224.64"/>
      </g>
     </g>
     <g id="text_3">
      <!-- 4 -->
      <g transform="translate(189.127699 239.238437)scale(0.1 -0.1)">
       <defs>
        <path d="M 2419 4116 
L 825 1625 
L 2419 1625 
L 2419 4116 
z
M 2253 4666 
L 3047 4666 
L 3047 1625 
L 3713 1625 
L 3713 1100 
L 3047 1100 
L 3047 0 
L 2419 0 
L 2419 1100 
L 313 1100 
L 313 1709 
L 2253 4666 
z
" id="DejaVuSans-34" transform="scale(0.015625)"/>
       </defs>
       <use xlink:href="#DejaVuSans-34"/>
      </g>
     </g>
    </g>
    <g id="xtick_4">
     <g id="line2d_4">
      <g>
       <use style="stroke:#000000;stroke-width:0.8;" x="253.181676" xlink:href="#m327991a257" y="224.64"/>
      </g>
     </g>
     <g id="text_4">
      <!-- 6 -->
      <g transform="translate(250.000426 239.238437)scale(0.1 -0.1)">
       <defs>
        <path d="M 2113 2584 
Q 1688 2584 1439 2293 
Q 1191 2003 1191 1497 
Q 1191 994 1439 701 
Q 1688 409 2113 409 
Q 2538 409 2786 701 
Q 3034 994 3034 1497 
Q 3034 2003 2786 2293 
Q 2538 2584 2113 2584 
z
M 3366 4563 
L 3366 3988 
Q 3128 4100 2886 4159 
Q 2644 4219 2406 4219 
Q 1781 4219 1451 3797 
Q 1122 3375 1075 2522 
Q 1259 2794 1537 2939 
Q 1816 3084 2150 3084 
Q 2853 3084 3261 2657 
Q 3669 2231 3669 1497 
Q 3669 778 3244 343 
Q 2819 -91 2113 -91 
Q 1303 -91 875 529 
Q 447 1150 447 2328 
Q 447 3434 972 4092 
Q 1497 4750 2381 4750 
Q 2619 4750 2861 4703 
Q 3103 4656 3366 4563 
z
" id="DejaVuSans-36" transform="scale(0.015625)"/>
       </defs>
       <use xlink:href="#DejaVuSans-36"/>
      </g>
     </g>
    </g>
    <g id="xtick_5">
     <g id="line2d_5">
      <g>
       <use style="stroke:#000000;stroke-width:0.8;" x="314.054403" xlink:href="#m327991a257" y="224.64"/>
      </g>
     </g>
     <g id="text_5">
      <!-- 8 -->
      <g transform="translate(310.873153 239.238437)scale(0.1 -0.1)">
       <defs>
        <path d="M 2034 2216 
Q 1584 2216 1326 1975 
Q 1069 1734 1069 1313 
Q 1069 891 1326 650 
Q 1584 409 2034 409 
Q 2484 409 2743 651 
Q 3003 894 3003 1313 
Q 3003 1734 2745 1975 
Q 2488 2216 2034 2216 
z
M 1403 2484 
Q 997 2584 770 2862 
Q 544 3141 544 3541 
Q 544 4100 942 4425 
Q 1341 4750 2034 4750 
Q 2731 4750 3128 4425 
Q 3525 4100 3525 3541 
Q 3525 3141 3298 2862 
Q 3072 2584 2669 2484 
Q 3125 2378 3379 2068 
Q 3634 1759 3634 1313 
Q 3634 634 3220 271 
Q 2806 -91 2034 -91 
Q 1263 -91 848 271 
Q 434 634 434 1313 
Q 434 1759 690 2068 
Q 947 2378 1403 2484 
z
M 1172 3481 
Q 1172 3119 1398 2916 
Q 1625 2713 2034 2713 
Q 2441 2713 2670 2916 
Q 2900 3119 2900 3481 
Q 2900 3844 2670 4047 
Q 2441 4250 2034 4250 
Q 1625 4250 1398 4047 
Q 1172 3844 1172 3481 
z
" id="DejaVuSans-38" transform="scale(0.015625)"/>
       </defs>
       <use xlink:href="#DejaVuSans-38"/>
      </g>
     </g>
    </g>
    <g id="xtick_6">
     <g id="line2d_6">
      <g>
       <use style="stroke:#000000;stroke-width:0.8;" x="374.927131" xlink:href="#m327991a257" y="224.64"/>
      </g>
     </g>
     <g id="text_6">
      <!-- 10 -->
      <g transform="translate(368.564631 239.238437)scale(0.1 -0.1)">
       <defs>
        <path d="M 794 531 
L 1825 531 
L 1825 4091 
L 703 3866 
L 703 4441 
L 1819 4666 
L 2450 4666 
L 2450 531 
L 3481 531 
L 3481 0 
L 794 0 
L 794 531 
z
" id="DejaVuSans-31" transform="scale(0.015625)"/>
       </defs>
       <use xlink:href="#DejaVuSans-31"/>
       <use x="63.623047" xlink:href="#DejaVuSans-30"/>
      </g>
     </g>
    </g>
    <g id="text_7">
     <!-- time [s] -->
     <g transform="translate(203.353906 252.916562)scale(0.1 -0.1)">
      <defs>
       <path d="M 1172 4494 
L 1172 3500 
L 2356 3500 
L 2356 3053 
L 1172 3053 
L 1172 1153 
Q 1172 725 1289 603 
Q 1406 481 1766 481 
L 2356 481 
L 2356 0 
L 1766 0 
Q 1100 0 847 248 
Q 594 497 594 1153 
L 594 3053 
L 172 3053 
L 172 3500 
L 594 3500 
L 594 4494 
L 1172 4494 
z
" id="DejaVuSans-74" transform="scale(0.015625)"/>
       <path d="M 603 3500 
L 1178 3500 
L 1178 0 
L 603 0 
L 603 3500 
z
M 603 4863 
L 1178 4863 
L 1178 4134 
L 603 4134 
L 603 4863 
z
" id="DejaVuSans-69" transform="scale(0.015625)"/>
       <path d="M 3328 2828 
Q 3544 3216 3844 3400 
Q 4144 3584 4550 3584 
Q 5097 3584 5394 3201 
Q 5691 2819 5691 2113 
L 5691 0 
L 5113 0 
L 5113 2094 
Q 5113 2597 4934 2840 
Q 4756 3084 4391 3084 
Q 3944 3084 3684 2787 
Q 3425 2491 3425 1978 
L 3425 0 
L 2847 0 
L 2847 2094 
Q 2847 2600 2669 2842 
Q 2491 3084 2119 3084 
Q 1678 3084 1418 2786 
Q 1159 2488 1159 1978 
L 1159 0 
L 581 0 
L 581 3500 
L 1159 3500 
L 1159 2956 
Q 1356 3278 1631 3431 
Q 1906 3584 2284 3584 
Q 2666 3584 2933 3390 
Q 3200 3197 3328 2828 
z
" id="DejaVuSans-6d" transform="scale(0.015625)"/>
       <path d="M 3597 1894 
L 3597 1613 
L 953 1613 
Q 991 1019 1311 708 
Q 1631 397 2203 397 
Q 2534 397 2845 478 
Q 3156 559 3463 722 
L 3463 178 
Q 3153 47 2828 -22 
Q 2503 -91 2169 -91 
Q 1331 -91 842 396 
Q 353 884 353 1716 
Q 353 2575 817 3079 
Q 1281 3584 2069 3584 
Q 2775 3584 3186 3129 
Q 3597 2675 3597 1894 
z
M 3022 2063 
Q 3016 2534 2758 2815 
Q 2500 3097 2075 3097 
Q 1594 3097 1305 2825 
Q 1016 2553 972 2059 
L 3022 2063 
z
" id="DejaVuSans-65" transform="scale(0.015625)"/>
       <path id="DejaVuSans-20" transform="scale(0.015625)"/>
       <path d="M 550 4863 
L 1875 4863 
L 1875 4416 
L 1125 4416 
L 1125 -397 
L 1875 -397 
L 1875 -844 
L 550 -844 
L 550 4863 
z
" id="DejaVuSans-5b" transform="scale(0.015625)"/>
       <path d="M 2834 3397 
L 2834 2853 
Q 2591 2978 2328 3040 
Q 2066 3103 1784 3103 
Q 1356 3103 1142 2972 
Q 928 2841 928 2578 
Q 928 2378 1081 2264 
Q 1234 2150 1697 2047 
L 1894 2003 
Q 2506 1872 2764 1633 
Q 3022 1394 3022 966 
Q 3022 478 2636 193 
Q 2250 -91 1575 -91 
Q 1294 -91 989 -36 
Q 684 19 347 128 
L 347 722 
Q 666 556 975 473 
Q 1284 391 1588 391 
Q 1994 391 2212 530 
Q 2431 669 2431 922 
Q 2431 1156 2273 1281 
Q 2116 1406 1581 1522 
L 1381 1569 
Q 847 1681 609 1914 
Q 372 2147 372 2553 
Q 372 3047 722 3315 
Q 1072 3584 1716 3584 
Q 2034 3584 2315 3537 
Q 2597 3491 2834 3397 
z
" id="DejaVuSans-73" transform="scale(0.015625)"/>
       <path d="M 1947 4863 
L 1947 -844 
L 622 -844 
L 622 -397 
L 1369 -397 
L 1369 4416 
L 622 4416 
L 622 4863 
L 1947 4863 
z
" id="DejaVuSans-5d" transform="scale(0.015625)"/>
      </defs>
      <use xlink:href="#DejaVuSans-74"/>
      <use x="39.208984" xlink:href="#DejaVuSans-69"/>
      <use x="66.992188" xlink:href="#DejaVuSans-6d"/>
      <use x="164.404297" xlink:href="#DejaVuSans-65"/>
      <use x="225.927734" xlink:href="#DejaVuSans-20"/>
      <use x="257.714844" xlink:href="#DejaVuSans-5b"/>
      <use x="296.728516" xlink:href="#DejaVuSans-73"/>
      <use x="348.828125" xlink:href="#DejaVuSans-5d"/>
     </g>
    </g>
   </g>
   <g id="matplotlib.axis_2">
    <g id="ytick_1">
     <g id="line2d_7">
      <defs>
       <path d="M 0 0 
L -3.5 0 
" id="ma0af50d611" style="stroke:#000000;stroke-width:0.8;"/>
      </defs>
      <g>
       <use style="stroke:#000000;stroke-width:0.8;" x="55.345313" xlink:href="#ma0af50d611" y="217.911513"/>
      </g>
     </g>
     <g id="text_8">
      <!-- −100 -->
      <g transform="translate(20.878125 221.710732)scale(0.1 -0.1)">
       <defs>
        <path d="M 678 2272 
L 4684 2272 
L 4684 1741 
L 678 1741 
L 678 2272 
z
" id="DejaVuSans-2212" transform="scale(0.015625)"/>
       </defs>
       <use xlink:href="#DejaVuSans-2212"/>
       <use x="83.789062" xlink:href="#DejaVuSans-31"/>
       <use x="147.412109" xlink:href="#DejaVuSans-30"/>
       <use x="211.035156" xlink:href="#DejaVuSans-30"/>
      </g>
     </g>
    </g>
    <g id="ytick_2">
     <g id="line2d_8">
      <g>
       <use style="stroke:#000000;stroke-width:0.8;" x="55.345313" xlink:href="#ma0af50d611" y="192.347978"/>
      </g>
     </g>
     <g id="text_9">
      <!-- −75 -->
      <g transform="translate(27.240625 196.147197)scale(0.1 -0.1)">
       <defs>
        <path d="M 525 4666 
L 3525 4666 
L 3525 4397 
L 1831 0 
L 1172 0 
L 2766 4134 
L 525 4134 
L 525 4666 
z
" id="DejaVuSans-37" transform="scale(0.015625)"/>
        <path d="M 691 4666 
L 3169 4666 
L 3169 4134 
L 1269 4134 
L 1269 2991 
Q 1406 3038 1543 3061 
Q 1681 3084 1819 3084 
Q 2600 3084 3056 2656 
Q 3513 2228 3513 1497 
Q 3513 744 3044 326 
Q 2575 -91 1722 -91 
Q 1428 -91 1123 -41 
Q 819 9 494 109 
L 494 744 
Q 775 591 1075 516 
Q 1375 441 1709 441 
Q 2250 441 2565 725 
Q 2881 1009 2881 1497 
Q 2881 1984 2565 2268 
Q 2250 2553 1709 2553 
Q 1456 2553 1204 2497 
Q 953 2441 691 2322 
L 691 4666 
z
" id="DejaVuSans-35" transform="scale(0.015625)"/>
       </defs>
       <use xlink:href="#DejaVuSans-2212"/>
       <use x="83.789062" xlink:href="#DejaVuSans-37"/>
       <use x="147.412109" xlink:href="#DejaVuSans-35"/>
      </g>
     </g>
    </g>
    <g id="ytick_3">
     <g id="line2d_9">
      <g>
       <use style="stroke:#000000;stroke-width:0.8;" x="55.345313" xlink:href="#ma0af50d611" y="166.784443"/>
      </g>
     </g>
     <g id="text_10">
      <!-- −50 -->
      <g transform="translate(27.240625 170.583662)scale(0.1 -0.1)">
       <use xlink:href="#DejaVuSans-2212"/>
       <use x="83.789062" xlink:href="#DejaVuSans-35"/>
       <use x="147.412109" xlink:href="#DejaVuSans-30"/>
      </g>
     </g>
    </g>
    <g id="ytick_4">
     <g id="line2d_10">
      <g>
       <use style="stroke:#000000;stroke-width:0.8;" x="55.345313" xlink:href="#ma0af50d611" y="141.220908"/>
      </g>
     </g>
     <g id="text_11">
      <!-- −25 -->
      <g transform="translate(27.240625 145.020127)scale(0.1 -0.1)">
       <use xlink:href="#DejaVuSans-2212"/>
       <use x="83.789062" xlink:href="#DejaVuSans-32"/>
       <use x="147.412109" xlink:href="#DejaVuSans-35"/>
      </g>
     </g>
    </g>
    <g id="ytick_5">
     <g id="line2d_11">
      <g>
       <use style="stroke:#000000;stroke-width:0.8;" x="55.345313" xlink:href="#ma0af50d611" y="115.657373"/>
      </g>
     </g>
     <g id="text_12">
      <!-- 0 -->
      <g transform="translate(41.982813 119.456592)scale(0.1 -0.1)">
       <use xlink:href="#DejaVuSans-30"/>
      </g>
     </g>
    </g>
    <g id="ytick_6">
     <g id="line2d_12">
      <g>
       <use style="stroke:#000000;stroke-width:0.8;" x="55.345313" xlink:href="#ma0af50d611" y="90.093839"/>
      </g>
     </g>
     <g id="text_13">
      <!-- 25 -->
      <g transform="translate(35.620313 93.893057)scale(0.1 -0.1)">
       <use xlink:href="#DejaVuSans-32"/>
       <use x="63.623047" xlink:href="#DejaVuSans-35"/>
      </g>
     </g>
    </g>
    <g id="ytick_7">
     <g id="line2d_13">
      <g>
       <use style="stroke:#000000;stroke-width:0.8;" x="55.345313" xlink:href="#ma0af50d611" y="64.530304"/>
      </g>
     </g>
     <g id="text_14">
      <!-- 50 -->
      <g transform="translate(35.620313 68.329522)scale(0.1 -0.1)">
       <use xlink:href="#DejaVuSans-35"/>
       <use x="63.623047" xlink:href="#DejaVuSans-30"/>
      </g>
     </g>
    </g>
    <g id="ytick_8">
     <g id="line2d_14">
      <g>
       <use style="stroke:#000000;stroke-width:0.8;" x="55.345313" xlink:href="#ma0af50d611" y="38.966769"/>
      </g>
     </g>
     <g id="text_15">
      <!-- 75 -->
      <g transform="translate(35.620313 42.765988)scale(0.1 -0.1)">
       <use xlink:href="#DejaVuSans-37"/>
       <use x="63.623047" xlink:href="#DejaVuSans-35"/>
      </g>
     </g>
    </g>
    <g id="ytick_9">
     <g id="line2d_15">
      <g>
       <use style="stroke:#000000;stroke-width:0.8;" x="55.345313" xlink:href="#ma0af50d611" y="13.403234"/>
      </g>
     </g>
     <g id="text_16">
      <!-- 100 -->
      <g transform="translate(29.257813 17.202453)scale(0.1 -0.1)">
       <use xlink:href="#DejaVuSans-31"/>
       <use x="63.623047" xlink:href="#DejaVuSans-30"/>
       <use x="127.246094" xlink:href="#DejaVuSans-30"/>
      </g>
     </g>
    </g>
    <g id="text_17">
     <!-- angle [deg] -->
     <g transform="translate(14.798438 144.708281)rotate(-90)scale(0.1 -0.1)">
      <defs>
       <path d="M 2194 1759 
Q 1497 1759 1228 1600 
Q 959 1441 959 1056 
Q 959 750 1161 570 
Q 1363 391 1709 391 
Q 2188 391 2477 730 
Q 2766 1069 2766 1631 
L 2766 1759 
L 2194 1759 
z
M 3341 1997 
L 3341 0 
L 2766 0 
L 2766 531 
Q 2569 213 2275 61 
Q 1981 -91 1556 -91 
Q 1019 -91 701 211 
Q 384 513 384 1019 
Q 384 1609 779 1909 
Q 1175 2209 1959 2209 
L 2766 2209 
L 2766 2266 
Q 2766 2663 2505 2880 
Q 2244 3097 1772 3097 
Q 1472 3097 1187 3025 
Q 903 2953 641 2809 
L 641 3341 
Q 956 3463 1253 3523 
Q 1550 3584 1831 3584 
Q 2591 3584 2966 3190 
Q 3341 2797 3341 1997 
z
" id="DejaVuSans-61" transform="scale(0.015625)"/>
       <path d="M 3513 2113 
L 3513 0 
L 2938 0 
L 2938 2094 
Q 2938 2591 2744 2837 
Q 2550 3084 2163 3084 
Q 1697 3084 1428 2787 
Q 1159 2491 1159 1978 
L 1159 0 
L 581 0 
L 581 3500 
L 1159 3500 
L 1159 2956 
Q 1366 3272 1645 3428 
Q 1925 3584 2291 3584 
Q 2894 3584 3203 3211 
Q 3513 2838 3513 2113 
z
" id="DejaVuSans-6e" transform="scale(0.015625)"/>
       <path d="M 2906 1791 
Q 2906 2416 2648 2759 
Q 2391 3103 1925 3103 
Q 1463 3103 1205 2759 
Q 947 2416 947 1791 
Q 947 1169 1205 825 
Q 1463 481 1925 481 
Q 2391 481 2648 825 
Q 2906 1169 2906 1791 
z
M 3481 434 
Q 3481 -459 3084 -895 
Q 2688 -1331 1869 -1331 
Q 1566 -1331 1297 -1286 
Q 1028 -1241 775 -1147 
L 775 -588 
Q 1028 -725 1275 -790 
Q 1522 -856 1778 -856 
Q 2344 -856 2625 -561 
Q 2906 -266 2906 331 
L 2906 616 
Q 2728 306 2450 153 
Q 2172 0 1784 0 
Q 1141 0 747 490 
Q 353 981 353 1791 
Q 353 2603 747 3093 
Q 1141 3584 1784 3584 
Q 2172 3584 2450 3431 
Q 2728 3278 2906 2969 
L 2906 3500 
L 3481 3500 
L 3481 434 
z
" id="DejaVuSans-67" transform="scale(0.015625)"/>
       <path d="M 603 4863 
L 1178 4863 
L 1178 0 
L 603 0 
L 603 4863 
z
" id="DejaVuSans-6c" transform="scale(0.015625)"/>
       <path d="M 2906 2969 
L 2906 4863 
L 3481 4863 
L 3481 0 
L 2906 0 
L 2906 525 
Q 2725 213 2448 61 
Q 2172 -91 1784 -91 
Q 1150 -91 751 415 
Q 353 922 353 1747 
Q 353 2572 751 3078 
Q 1150 3584 1784 3584 
Q 2172 3584 2448 3432 
Q 2725 3281 2906 2969 
z
M 947 1747 
Q 947 1113 1208 752 
Q 1469 391 1925 391 
Q 2381 391 2643 752 
Q 2906 1113 2906 1747 
Q 2906 2381 2643 2742 
Q 2381 3103 1925 3103 
Q 1469 3103 1208 2742 
Q 947 2381 947 1747 
z
" id="DejaVuSans-64" transform="scale(0.015625)"/>
      </defs>
      <use xlink:href="#DejaVuSans-61"/>
      <use x="61.279297" xlink:href="#DejaVuSans-6e"/>
      <use x="124.658203" xlink:href="#DejaVuSans-67"/>
      <use x="188.134766" xlink:href="#DejaVuSans-6c"/>
      <use x="215.917969" xlink:href="#DejaVuSans-65"/>
      <use x="277.441406" xlink:href="#DejaVuSans-20"/>
      <use x="309.228516" xlink:href="#DejaVuSans-5b"/>
      <use x="348.242188" xlink:href="#DejaVuSans-64"/>
      <use x="411.71875" xlink:href="#DejaVuSans-65"/>
      <use x="473.242188" xlink:href="#DejaVuSans-67"/>
      <use x="536.71875" xlink:href="#DejaVuSans-5d"/>
     </g>
    </g>
   </g>
   <g id="line2d_16">
    <path clip-path="url(#pac272e2dd5)" d="M 70.563494 115.657373 
L 71.476585 115.571109 
L 72.389676 115.310773 
L 73.302767 114.871519 
L 74.520222 113.998752 
L 75.737676 112.761238 
L 76.955131 111.135615 
L 78.172585 109.130329 
L 79.694403 106.158606 
L 82.73804 100.023343 
L 83.651131 98.600227 
L 84.564222 97.531004 
L 85.477313 96.843376 
L 86.08604 96.603999 
L 86.694767 96.540291 
L 87.303494 96.649154 
L 87.912222 96.924726 
L 88.825312 97.641015 
L 89.738403 98.707859 
L 90.651494 100.109981 
L 91.868949 102.474533 
L 93.086403 105.371446 
L 94.608222 109.687517 
L 96.13004 114.698883 
L 98.260585 122.532824 
L 101.304222 133.705743 
L 102.82604 138.39721 
L 104.043494 141.469695 
L 105.260949 143.873415 
L 106.17404 145.229692 
L 107.087131 146.199101 
L 108.000222 146.778611 
L 108.608949 146.947551 
L 109.217676 146.942467 
L 109.826403 146.763616 
L 110.435131 146.41246 
L 111.348222 145.561447 
L 112.261313 144.318423 
L 113.174403 142.690314 
L 114.391858 139.953311 
L 115.609313 136.638745 
L 117.131131 131.860726 
L 122.609676 113.928162 
L 124.435858 109.053182 
L 125.957676 105.647514 
L 127.175131 103.389904 
L 128.392585 101.590814 
L 129.305676 100.567602 
L 130.218767 99.840588 
L 131.131858 99.422313 
L 132.044949 99.32303 
L 132.95804 99.550848 
L 133.871131 100.113221 
L 134.784222 100.990883 
L 136.001676 102.582374 
L 137.523494 105.061699 
L 140.871494 110.787962 
L 142.393312 112.903987 
L 143.610767 114.270439 
L 144.828222 115.34428 
L 146.045676 116.157741 
L 147.263131 116.738275 
L 148.480585 117.100825 
L 149.69804 117.25488 
L 150.915494 117.203681 
L 152.132949 116.944223 
L 153.350403 116.468101 
L 154.567858 115.762082 
L 155.785313 114.803681 
L 157.002767 113.586009 
L 158.524585 111.719515 
L 160.350767 109.073074 
L 163.394403 104.597881 
L 164.611858 103.183732 
L 165.524949 102.378186 
L 166.43804 101.816813 
L 167.351131 101.512776 
L 168.264222 101.470416 
L 169.177312 101.685247 
L 170.090403 102.144989 
L 171.003494 102.837355 
L 172.220949 104.100183 
L 173.438403 105.721466 
L 174.960222 108.199834 
L 176.48204 111.113687 
L 178.308222 115.083163 
L 180.743131 120.96199 
L 185.308585 132.148883 
L 186.830403 135.305958 
L 188.047858 137.436036 
L 189.265312 139.149633 
L 190.178403 140.135596 
L 191.091494 140.852101 
L 192.004585 141.294987 
L 192.917676 141.461218 
L 193.830767 141.349904 
L 194.743858 140.962829 
L 195.656949 140.304443 
L 196.57004 139.381866 
L 197.787494 137.757465 
L 199.004949 135.704289 
L 200.526767 132.582516 
L 202.048585 128.922665 
L 204.179131 123.10798 
L 211.483858 102.275502 
L 213.31004 98.086676 
L 214.831858 95.168033 
L 216.049313 93.25364 
L 217.266767 91.73847 
L 218.484222 90.639109 
L 219.397312 90.097353 
L 220.310403 89.803076 
L 221.223494 89.758019 
L 222.136585 89.961282 
L 223.049676 90.409328 
L 223.962767 91.095978 
L 225.180222 92.367058 
L 226.397676 94.020294 
L 227.615131 96.022908 
L 229.136949 98.951602 
L 230.963131 102.96489 
L 233.702403 109.618529 
L 238.876585 122.307325 
L 241.007131 126.91481 
L 242.833313 130.332314 
L 244.355131 132.702977 
L 245.572585 134.234732 
L 246.79004 135.410859 
L 247.703131 136.046349 
L 248.616222 136.46303 
L 249.529312 136.656606 
L 250.442403 136.624705 
L 251.355494 136.368842 
L 252.268585 135.897961 
L 253.48604 134.956553 
L 254.703494 133.689509 
L 256.225312 131.71441 
L 258.051494 128.907758 
L 260.790767 124.194922 
L 269.008585 109.64034 
L 271.139131 106.402149 
L 272.965312 104.033305 
L 274.487131 102.428338 
L 275.704585 101.431501 
L 276.92204 100.725461 
L 277.835131 100.403814 
L 278.748222 100.271838 
L 279.661313 100.339361 
L 280.574403 100.610446 
L 281.487494 101.083383 
L 282.704949 102.014177 
L 283.922403 103.256102 
L 285.444222 105.165095 
L 287.879131 108.695111 
L 291.531494 113.997445 
L 293.966403 117.105997 
L 296.096949 119.49244 
L 298.227494 121.567933 
L 300.35804 123.323455 
L 302.184222 124.549822 
L 303.70604 125.348635 
L 305.227858 125.918113 
L 306.749676 126.229511 
L 307.967131 126.271105 
L 309.184585 126.108442 
L 310.40204 125.724265 
L 311.619494 125.100755 
L 312.836949 124.216751 
L 314.054403 123.066004 
L 315.576222 121.268459 
L 317.09804 119.123368 
L 319.837312 114.7617 
L 322.272222 111.05851 
L 323.79404 109.117429 
L 325.315858 107.566202 
L 326.533312 106.614554 
L 327.750767 105.916008 
L 328.968222 105.457005 
L 330.185676 105.217982 
L 331.403131 105.1822 
L 332.924949 105.396865 
L 334.446767 105.870821 
L 335.968585 106.576272 
L 337.794767 107.694064 
L 339.620949 109.074797 
L 341.751494 111.000239 
L 343.88204 113.255104 
L 346.012585 115.833948 
L 348.447494 119.172458 
L 354.230403 127.446635 
L 355.447858 128.770323 
L 356.665312 129.79286 
L 357.882767 130.475935 
L 358.795858 130.753372 
L 359.708949 130.828026 
L 360.62204 130.705234 
L 361.535131 130.394647 
L 362.752585 129.706752 
L 363.97004 128.73247 
L 365.491858 127.158359 
L 367.013676 125.247264 
L 368.839858 122.602932 
L 371.274767 118.652439 
L 374.927131 112.238104 
L 374.927131 112.238104 
" style="fill:none;stroke:#1f77b4;stroke-linecap:square;stroke-width:1.5;"/>
   </g>
   <g id="line2d_17">
    <path clip-path="url(#pac272e2dd5)" d="M 70.563494 69.643011 
L 71.172222 69.78969 
L 71.780949 70.230095 
L 72.389676 70.965586 
L 72.998403 71.998516 
L 73.911494 74.106228 
L 74.824585 76.901626 
L 75.737676 80.415331 
L 76.955131 86.227215 
L 78.172585 93.278852 
L 79.694403 103.632438 
L 83.955494 134.095681 
L 85.172949 140.771867 
L 86.08604 144.842633 
L 86.999131 148.081409 
L 87.912222 150.496877 
L 88.520949 151.657606 
L 89.129676 152.460022 
L 89.738403 152.905954 
L 90.347131 152.997429 
L 90.955858 152.736672 
L 91.564585 152.126107 
L 92.173313 151.168358 
L 92.78204 149.866244 
L 93.695131 147.274157 
L 94.608222 143.924562 
L 95.825676 138.331464 
L 97.043131 131.613024 
L 98.869313 120.106778 
L 101.608585 102.834154 
L 102.82604 96.416867 
L 104.043494 91.202995 
L 104.956585 88.155774 
L 105.869676 85.852622 
L 106.478403 84.729026 
L 107.087131 83.934882 
L 107.695858 83.469775 
L 108.304585 83.332931 
L 108.913313 83.523218 
L 109.52204 84.03915 
L 110.130767 84.878266 
L 110.739494 86.036433 
L 111.652585 88.383492 
L 112.565676 91.464589 
L 113.478767 95.257448 
L 114.696222 101.332549 
L 116.21804 110.277419 
L 121.087858 140.45103 
L 122.305312 146.26164 
L 123.522767 150.928663 
L 124.435858 153.628811 
L 125.348949 155.622791 
L 125.957676 156.557748 
L 126.566403 157.178259 
L 127.175131 157.480017 
L 127.783858 157.457999 
L 128.392585 157.108115 
L 129.001312 156.427205 
L 129.61004 155.413038 
L 130.523131 153.264344 
L 131.436222 150.362652 
L 132.349312 146.71221 
L 133.566767 140.689313 
L 134.784222 133.416972 
L 136.30604 122.946715 
L 141.175858 88.104061 
L 142.697676 79.584796 
L 143.915131 74.029448 
L 145.132585 69.616827 
L 146.045676 67.024329 
L 146.958767 65.032769 
L 147.871858 63.636103 
L 148.480585 63.032931 
L 149.089313 62.690803 
L 149.69804 62.608974 
L 150.306767 62.787027 
L 150.915494 63.224881 
L 151.524222 63.922784 
L 152.437313 65.458591 
L 153.350403 67.582244 
L 154.263494 70.296333 
L 155.176585 73.615067 
L 156.39404 78.979891 
L 157.611494 85.378343 
L 159.133312 94.687498 
L 161.263858 109.51895 
L 164.307494 130.927164 
L 165.829313 140.142733 
L 167.046767 146.380596 
L 168.264222 151.494157 
L 169.177312 154.565569 
L 170.090403 156.986304 
L 171.003494 158.759245 
L 171.612222 159.581802 
L 172.220949 160.118252 
L 172.829676 160.370598 
L 173.438403 160.341539 
L 174.047131 160.034473 
L 174.655858 159.453499 
L 175.264585 158.603414 
L 176.177676 156.835917 
L 177.090767 154.496863 
L 178.003858 151.607529 
L 179.221313 146.948924 
L 180.743131 139.98432 
L 182.569312 130.361397 
L 187.439131 103.67587 
L 188.960949 96.807681 
L 190.178403 92.229355 
L 191.395858 88.565157 
L 192.308949 86.44133 
L 193.22204 84.869562 
L 193.830767 84.133655 
L 194.439494 83.649328 
L 195.048222 83.417063 
L 195.656949 83.436218 
L 196.265676 83.705032 
L 196.874403 84.220624 
L 197.483131 84.979222 
L 198.396222 86.56726 
L 199.309313 88.684273 
L 200.222403 91.307258 
L 201.439858 95.53051 
L 202.961676 101.810808 
L 204.787858 110.409467 
L 209.353313 132.562073 
L 210.875131 138.754991 
L 212.092585 142.908782 
L 213.31004 146.248372 
L 214.223131 148.174436 
L 215.136222 149.580872 
L 215.744949 150.223437 
L 216.353676 150.627904 
L 216.962403 150.794381 
L 217.571131 150.724849 
L 218.179858 150.419283 
L 218.788585 149.876724 
L 219.397312 149.097482 
L 220.310403 147.488637 
L 221.223494 145.361776 
L 222.136585 142.733995 
L 223.35404 138.49265 
L 224.571494 133.476827 
L 226.093312 126.259659 
L 227.919494 116.510049 
L 234.615494 79.55335 
L 236.137313 72.965967 
L 237.354767 68.599121 
L 238.572222 65.139688 
L 239.485312 63.184792 
L 240.398403 61.803118 
L 241.007131 61.207916 
L 241.615858 60.875382 
L 242.224585 60.806598 
L 242.833313 61.00618 
L 243.44204 61.477708 
L 244.050767 62.223592 
L 244.659494 63.245077 
L 245.572585 65.293906 
L 246.485676 67.95807 
L 247.398767 71.226994 
L 248.616222 76.496946 
L 249.833676 82.756607 
L 251.355494 91.869713 
L 253.181676 104.387453 
L 255.616585 122.819773 
L 259.573312 152.924505 
L 261.399494 165.173036 
L 262.921312 174.093358 
L 264.443131 181.642347 
L 265.660585 186.605969 
L 266.87804 190.569521 
L 267.791131 192.872973 
L 268.704222 194.589012 
L 269.312949 195.40009 
L 269.921676 195.940606 
L 270.530403 196.207278 
L 271.139131 196.197115 
L 271.747858 195.907413 
L 272.356585 195.335758 
L 272.965312 194.480021 
L 273.878403 192.659818 
L 274.791494 190.19137 
L 275.704585 187.071145 
L 276.92204 181.893596 
L 278.139494 175.558906 
L 279.356949 168.065468 
L 280.878767 157.112374 
L 282.400585 144.559898 
L 284.531131 124.897789 
L 290.009676 72.609449 
L 291.835858 57.808787 
L 293.357676 47.144485 
L 294.879494 38.075156 
L 296.096949 31.98414 
L 297.314403 26.936013 
L 298.531858 22.931583 
L 299.444949 20.610272 
L 300.35804 18.87092 
L 301.271131 17.714808 
L 301.879858 17.268889 
L 302.488585 17.083636 
L 303.097313 17.159934 
L 303.70604 17.498837 
L 304.314767 18.101571 
L 304.923494 18.969531 
L 305.836585 20.772243 
L 306.749676 23.181283 
L 307.662767 26.20352 
L 308.880222 31.200517 
L 310.097676 37.318341 
L 311.315131 44.563999 
L 312.836949 55.249607 
L 314.358767 67.704669 
L 316.184949 84.745341 
L 318.619858 110.062332 
L 322.272222 148.346758 
L 324.098403 165.244011 
L 325.620222 177.525332 
L 327.14204 188.052518 
L 328.359494 195.18401 
L 329.576949 201.181355 
L 330.794403 206.062528 
L 331.707494 209.001161 
L 332.620585 211.329009 
L 333.533676 213.052685 
L 334.142403 213.869066 
L 334.751131 214.421072 
L 335.359858 214.710087 
L 335.968585 214.737342 
L 336.577313 214.503911 
L 337.18604 214.010719 
L 337.794767 213.259187 
L 338.707858 211.650287 
L 339.620949 209.457779 
L 340.53404 206.676695 
L 341.751494 202.048724 
L 342.968949 196.3699 
L 344.186403 189.647471 
L 345.708222 179.799638 
L 347.23004 168.388591 
L 349.056222 152.775921 
L 351.491131 129.577466 
L 355.752222 88.450057 
L 357.578403 73.193795 
L 359.100222 62.255569 
L 360.62204 53.102361 
L 361.839494 47.088465 
L 363.056949 42.239781 
L 363.97004 39.366178 
L 364.883131 37.142849 
L 365.796222 35.564614 
L 366.404949 34.86749 
L 367.013676 34.451543 
L 367.622403 34.31394 
L 368.231131 34.451501 
L 368.839858 34.861331 
L 369.448585 35.541971 
L 370.057312 36.491087 
L 370.970403 38.411951 
L 371.883494 40.919387 
L 372.796585 44.000175 
L 374.01404 48.973011 
L 374.927131 53.328479 
L 374.927131 53.328479 
" style="fill:none;stroke:#ff7f0e;stroke-linecap:square;stroke-width:1.5;"/>
   </g>
   <g id="patch_3">
    <path d="M 55.345313 224.64 
L 55.345313 7.2 
" style="fill:none;stroke:#000000;stroke-linecap:square;stroke-linejoin:miter;stroke-width:0.8;"/>
   </g>
   <g id="patch_4">
    <path d="M 390.145312 224.64 
L 390.145312 7.2 
" style="fill:none;stroke:#000000;stroke-linecap:square;stroke-linejoin:miter;stroke-width:0.8;"/>
   </g>
   <g id="patch_5">
    <path d="M 55.345313 224.64 
L 390.145312 224.64 
" style="fill:none;stroke:#000000;stroke-linecap:square;stroke-linejoin:miter;stroke-width:0.8;"/>
   </g>
   <g id="patch_6">
    <path d="M 55.345313 7.2 
L 390.145312 7.2 
" style="fill:none;stroke:#000000;stroke-linecap:square;stroke-linejoin:miter;stroke-width:0.8;"/>
   </g>
   <g id="legend_1">
    <g id="patch_7">
     <path d="M 62.345313 45.1125 
L 112.05625 45.1125 
Q 114.05625 45.1125 114.05625 43.1125 
L 114.05625 14.2 
Q 114.05625 12.2 112.05625 12.2 
L 62.345313 12.2 
Q 60.345313 12.2 60.345313 14.2 
L 60.345313 43.1125 
Q 60.345313 45.1125 62.345313 45.1125 
z
" style="fill:#ffffff;opacity:0.8;stroke:#cccccc;stroke-linejoin:miter;"/>
    </g>
    <g id="line2d_18">
     <path d="M 64.345313 20.298437 
L 84.345313 20.298437 
" style="fill:none;stroke:#1f77b4;stroke-linecap:square;stroke-width:1.5;"/>
    </g>
    <g id="line2d_19"/>
    <g id="text_18">
     <!-- q_0 -->
     <g transform="translate(92.345313 23.798437)scale(0.1 -0.1)">
      <defs>
       <path d="M 947 1747 
Q 947 1113 1208 752 
Q 1469 391 1925 391 
Q 2381 391 2643 752 
Q 2906 1113 2906 1747 
Q 2906 2381 2643 2742 
Q 2381 3103 1925 3103 
Q 1469 3103 1208 2742 
Q 947 2381 947 1747 
z
M 2906 525 
Q 2725 213 2448 61 
Q 2172 -91 1784 -91 
Q 1150 -91 751 415 
Q 353 922 353 1747 
Q 353 2572 751 3078 
Q 1150 3584 1784 3584 
Q 2172 3584 2448 3432 
Q 2725 3281 2906 2969 
L 2906 3500 
L 3481 3500 
L 3481 -1331 
L 2906 -1331 
L 2906 525 
z
" id="DejaVuSans-71" transform="scale(0.015625)"/>
       <path d="M 3263 -1063 
L 3263 -1509 
L -63 -1509 
L -63 -1063 
L 3263 -1063 
z
" id="DejaVuSans-5f" transform="scale(0.015625)"/>
      </defs>
      <use xlink:href="#DejaVuSans-71"/>
      <use x="63.476562" xlink:href="#DejaVuSans-5f"/>
      <use x="113.476562" xlink:href="#DejaVuSans-30"/>
     </g>
    </g>
    <g id="line2d_20">
     <path d="M 64.345313 35.254687 
L 84.345313 35.254687 
" style="fill:none;stroke:#ff7f0e;stroke-linecap:square;stroke-width:1.5;"/>
    </g>
    <g id="line2d_21"/>
    <g id="text_19">
     <!-- q_1 -->
     <g transform="translate(92.345313 38.754687)scale(0.1 -0.1)">
      <use xlink:href="#DejaVuSans-71"/>
      <use x="63.476562" xlink:href="#DejaVuSans-5f"/>
      <use x="113.476562" xlink:href="#DejaVuSans-31"/>
     </g>
    </g>
   </g>
  </g>
 </g>
 <defs>
  <clipPath id="pac272e2dd5">
   <rect height="217.44" width="334.8" x="55.345313" y="7.2"/>
  </clipPath>
 </defs>
</svg>
